<svg width="157" height="36" viewBox="0 0 157 36" fill="none" xmlns="http://www.w3.org/2000/svg">
<g clip-path="url(#clip0_48_70)">
<path d="M141.794 11.2935L141.502 11.3857C140.369 9.04217 138.749 7.17663 136.644 5.78905C134.571 4.40145 131.963 3.70765 128.822 3.70765C127.073 3.70765 125.405 4.06224 123.818 4.77142C122.23 5.44984 120.838 6.42116 119.639 7.68537C118.473 8.91877 117.534 10.4143 116.821 12.1719C116.109 13.9295 115.753 15.8722 115.753 17.9998C115.753 20.1274 116.109 22.07 116.821 23.8276C117.534 25.5852 118.473 27.0962 119.639 28.3604C120.838 29.5938 122.23 30.5497 123.818 31.2281C125.405 31.9065 127.073 32.2456 128.822 32.2456C131.931 32.2456 134.457 31.7831 136.401 30.858C138.377 29.9022 140.045 28.4529 141.405 26.5103L141.697 26.6025L141.6 29.5627C140.855 30.3028 139.996 30.9657 139.025 31.5516C138.053 32.1066 137 32.5845 135.867 32.9854C134.766 33.3554 133.616 33.633 132.417 33.818C131.219 34.034 130.021 34.142 128.822 34.142C126.328 34.142 123.948 33.7566 121.68 32.9857C119.413 32.2148 117.421 31.1355 115.704 29.7479C113.988 28.3296 112.627 26.6336 111.623 24.6602C110.619 22.6559 110.117 20.4357 110.117 17.9997C110.117 15.5637 110.619 13.359 111.623 11.3856C112.627 9.38128 113.988 7.66993 115.704 6.25154C117.421 4.8331 119.413 3.75386 121.68 3.01382C123.948 2.24291 126.328 1.85746 128.822 1.85746C130.021 1.85746 131.219 1.94997 132.417 2.13498C133.616 2.31999 134.766 2.61293 135.867 3.01382C137 3.38384 138.053 3.86179 139.025 4.44769C139.996 5.00272 140.855 5.65025 141.6 6.3903L141.794 11.2935ZM34.7334 20.1278C34.3774 20.2818 34.0373 20.4823 33.7132 20.7294C33.3891 20.9759 33.2271 21.3151 33.2271 21.747V27.4361C31.6724 29.5637 29.6804 31.2134 27.2512 32.3851C24.822 33.5569 22.1337 34.1428 19.1862 34.1428C16.6923 34.1428 14.3117 33.7573 12.0444 32.9864C9.77718 32.2155 7.78523 31.1363 6.06858 29.7487C4.35195 28.3303 2.99159 26.6344 1.9875 24.661C0.983462 22.6567 0.481445 20.4365 0.481445 18.0005C0.481445 15.5645 0.983462 13.3598 1.9875 11.3864C2.99159 9.38204 4.35195 7.67068 6.06858 6.2523C7.78523 4.83386 9.77718 3.75463 12.0444 3.01461C14.3117 2.24369 16.6923 1.85822 19.1862 1.85822C20.3847 1.85822 21.5831 1.95073 22.7815 2.13574C23.9799 2.32075 25.1297 2.61369 26.231 3.01458C27.3646 3.3846 28.4172 3.86255 29.3889 4.44845C30.3606 5.00348 31.2189 5.65101 31.9639 6.39105L32.1585 11.2938L31.867 11.386C30.7334 9.0425 29.114 7.17695 27.0087 5.78937C24.9357 4.40177 22.3284 3.70797 19.1866 3.70797C17.4376 3.70797 15.7696 4.06257 14.1825 4.77177C12.5954 5.45017 11.2027 6.42148 10.0042 7.68569C8.8382 8.91912 7.89893 10.4146 7.18642 12.1723C6.4738 13.9299 6.1175 15.8725 6.1175 18.0001C6.1175 20.0969 6.45759 22.0241 7.13779 23.7817C7.85038 25.5393 8.78968 27.0503 9.95569 28.3145C11.1541 29.5479 12.5468 30.5192 14.1339 31.2285C15.721 31.9068 17.4052 32.246 19.1866 32.246C22.5551 32.246 25.4378 31.6293 27.8346 30.3959V21.7466C27.8346 21.3151 27.6565 20.9759 27.3005 20.729C26.9764 20.4825 26.6525 20.282 26.3287 20.1274L26.3731 19.8965C26.5349 19.9247 26.8264 19.9554 27.2477 19.9886C27.6689 20.0168 28.1062 20.0476 28.5595 20.0808H32.7379C33.1266 20.0526 33.4991 20.0219 33.8554 19.9886C34.2115 19.9604 34.4867 19.9297 34.681 19.8965L34.7334 20.1278ZM69.9234 2.82921C69.5993 2.98319 69.2754 3.18372 68.9517 3.43077C68.6277 3.67726 68.4496 4.13979 68.4176 4.81835C68.388 5.55839 68.3557 6.49887 68.3208 7.63979C68.3208 8.74988 68.306 10.0141 68.2763 11.4325C68.2763 12.8509 68.2615 14.3927 68.2319 16.0578V21.2382C68.2023 23.2424 67.9431 24.9538 67.4543 26.3723C66.9684 27.7906 66.3206 28.9778 65.5109 29.9337C64.7336 30.8896 63.8591 31.6451 62.8874 32.2001C61.9481 32.7551 61.0088 33.1714 60.0695 33.4489C59.1626 33.7574 58.3043 33.9425 57.4946 34.0039C56.6848 34.0964 56.0532 34.1427 55.5998 34.1427C53.7536 34.1427 51.9722 33.9114 50.2555 33.4489C48.5389 33.0174 47.0328 32.3082 45.7372 31.3212C44.4417 30.3345 43.4052 29.0549 42.6279 27.4823C41.8505 25.9097 41.4618 23.9979 41.4618 21.7469V16.5204V11.71C41.4618 10.2299 41.447 8.90397 41.4174 7.73226C41.4174 6.52967 41.4026 5.55835 41.373 4.81831C41.3434 4.13991 41.1653 3.67738 40.8389 3.43073C40.5148 3.18423 40.1909 2.98371 39.8672 2.82917L39.9116 2.59818C40.0734 2.62638 40.3326 2.65711 40.6893 2.69037C41.078 2.71857 41.4666 2.7493 41.8553 2.78255C42.2766 2.78255 42.6814 2.79665 43.0699 2.82486H44.8189C45.2076 2.79665 45.6125 2.78255 46.0335 2.78255C46.4548 2.75435 46.8434 2.72362 47.1995 2.69037C47.5882 2.66217 47.8634 2.63144 48.0251 2.59818L48.0696 2.82917C47.7135 2.98315 47.3734 3.18368 47.0493 3.43073C46.7578 3.67722 46.5958 4.13975 46.5632 4.81831C46.5336 5.55835 46.5013 6.52967 46.4664 7.73226V21.7469C46.4664 25.1079 47.2923 27.5902 48.9441 29.1936C50.596 30.797 53.0414 31.5987 56.2803 31.5987C57.2196 31.5987 58.2884 31.4907 59.4869 31.2747C60.6853 31.0282 61.8027 30.5348 62.8392 29.7946C63.908 29.0546 64.7987 28.0062 65.5113 26.6495C66.2562 25.2927 66.6287 23.4888 66.6287 21.2379C66.6287 18.8019 66.6139 16.7205 66.5843 14.9937C66.5843 13.2361 66.5695 11.7406 66.5399 10.5072C66.5399 9.24294 66.525 8.1637 66.4954 7.26945C66.4658 6.37526 66.4335 5.55814 66.3985 4.81807C66.3689 4.13967 66.1908 3.67714 65.8644 3.43049C65.5403 3.18399 65.2164 2.98346 64.8927 2.82889L64.9372 2.59794C65.2933 2.6594 65.6981 2.72116 66.1517 2.78323C66.605 2.81143 67.0261 2.82553 67.415 2.82553C67.771 2.82553 68.1759 2.81143 68.6295 2.78323C69.1153 2.72177 69.5364 2.66001 69.8928 2.59794L69.9234 2.82921ZM105.178 11.2935L104.886 11.3857C103.752 9.04217 102.133 7.17663 100.028 5.78905C97.9547 4.40145 95.3474 3.70765 92.2057 3.70765C90.4566 3.70765 88.7885 4.06224 87.2014 4.77142C85.6143 5.44984 84.2216 6.42116 83.0232 7.68537C81.8572 8.91877 80.9179 10.4143 80.2053 12.1719C79.4928 13.9296 79.1365 15.8722 79.1365 17.9998C79.1365 20.1274 79.4928 22.07 80.2054 23.8276C80.918 25.5852 81.8573 27.0962 83.0233 28.3604C84.2217 29.5938 85.6144 30.5497 87.2015 31.2281C88.7886 31.9065 90.4566 32.2456 92.2057 32.2456C95.3151 32.2456 97.8414 31.7831 99.7848 30.858C101.761 29.9022 103.429 28.4529 104.789 26.5103L105.08 26.6025L104.984 29.5627C104.239 30.3027 103.38 30.9657 102.409 31.5515C101.437 32.1065 100.384 32.5845 99.2505 32.9854C98.1493 33.3554 96.9995 33.6329 95.8011 33.8179C94.6027 34.034 93.4043 34.142 92.2059 34.142C89.7119 34.142 87.3313 33.7565 85.0641 32.9856C82.7968 32.2147 80.8048 31.1355 79.0882 29.7479C77.3715 28.3295 76.0112 26.6336 75.0072 24.6601C74.0031 22.6558 73.501 20.4357 73.501 17.9997C73.501 15.5637 74.0031 13.359 75.0072 11.3856C76.0112 9.38125 77.3715 7.66989 79.0882 6.2515C80.8048 4.83306 82.7968 3.75382 85.0641 3.01378C87.3313 2.24287 89.7119 1.85742 92.2059 1.85742C93.4043 1.85742 94.6027 1.94993 95.8011 2.13494C96.9995 2.31995 98.1493 2.61289 99.2505 3.01378C100.384 3.3838 101.437 3.86175 102.409 4.44765C103.38 5.00268 104.239 5.65021 104.983 6.39026L105.178 11.2935ZM156.437 33.3561C156.275 33.3279 156 33.2972 155.611 33.2639C155.255 33.2639 154.867 33.2498 154.445 33.2216C154.024 33.2216 153.619 33.2075 153.231 33.1793H150.316C149.927 33.2075 149.539 33.2382 149.15 33.2715C148.794 33.2997 148.519 33.3304 148.324 33.3637L148.28 33.1783C148.604 33.0243 148.928 32.8238 149.252 32.5768C149.576 32.3303 149.754 31.8678 149.786 31.1892C149.815 30.4492 149.83 29.6783 149.83 28.8766C149.86 28.0748 149.875 27.1652 149.875 26.1476V22.6786V18.0071V13.3356V9.82037C149.875 8.80282 149.86 7.90858 149.83 7.13768C149.83 6.33597 149.815 5.56509 149.786 4.82505C149.756 4.14665 149.578 3.68413 149.252 3.43747C148.927 3.15996 148.604 2.94419 148.28 2.79018L148.324 2.60493C148.519 2.66638 148.794 2.71264 149.15 2.74368C149.539 2.74368 149.927 2.75778 150.316 2.78599C150.737 2.81419 151.142 2.82829 151.531 2.82829H153.231C153.619 2.80009 154.024 2.78599 154.445 2.78599C154.867 2.75778 155.255 2.72706 155.611 2.6938C156 2.6656 156.275 2.63487 156.437 2.60161L156.481 2.78694C156.125 2.94093 155.785 3.15669 155.461 3.4342C155.17 3.6807 155.008 4.14322 154.975 4.82178C154.945 5.56182 154.913 6.3327 154.878 7.13441V28.8733C154.908 29.675 154.94 30.4459 154.975 31.1859C155.005 31.8643 155.167 32.3268 155.461 32.5735C155.785 32.82 156.125 33.0205 156.481 33.1751L156.437 33.3561Z" fill="white"/>
</g>
<defs>
<clipPath id="clip0_48_70">
<rect width="156" height="36" fill="white" transform="translate(0.481445)"/>
</clipPath>
</defs>
</svg>
